# xmcd CD database file
#
# Track frame offsets:
#	150
#	14392
#	30755
#	46202
#	57775
#	75893
#	89355
#	106684
#	118970
#	131475
#	147507
#	159384
#	176631
#	191178
#
# Disc length: 2727 seconds
#
# Revision: 1
# Processed by: cddbd v1.5.2PL0 Copyright (c) Steve Scherf et al.
# Submitted via: CDex 1.51
#
DISCID=ac0aa50e
DTITLE=Edson and Hudson - Acústico ao Vivo
DYEAR=2002
DGENRE=Sertanejo
TTITLE0=Azul
TTITLE1=Mil Razões Para Chorar
TTITLE2=Deixa Eu Te Amar
TTITLE3=Festa Llouca
TTITLE4=Meu Aanjo
TTITLE5=Me Bate, Me Xinga
TTITLE6=Cidadão
TTITLE7=Mulher, Cerveja e Viola
TTITLE8=A Força da Paixão
TTITLE9=Saudade
TTITLE10=Zoião
TTITLE11=Jura
TTITLE12=Te Quero Pra Mim
TTITLE13=Pagode em Brasília - Pagode - A Coisa Tá Feia
EXTD=YEAR: 2002
EXTT0=
EXTT1=
EXTT2=
EXTT3=
EXTT4=
EXTT5=
EXTT6=
EXTT7=
EXTT8=
EXTT9=
EXTT10=
EXTT11=
EXTT12=
EXTT13=
PLAYORDER=
